<mxfile host="app.diagrams.net" modified="2021-05-24T11:18:26.385Z" agent="5.0 (X11)" etag="T4nnMF_0BU_KBKe0DPrZ" version="14.7.0" type="github" pages="7">
  <diagram id="qBXtPqxMwe3Q1rfFwavj" name="LoginUtente">
    <mxGraphModel dx="1422" dy="762" grid="1" gridSize="10" guides="1" tooltips="1" connect="1" arrows="1" fold="1" page="1" pageScale="1" pageWidth="850" pageHeight="1100" math="0" shadow="0">
      <root>
        <mxCell id="0gMWyx64knojHuvCs0xP-0" />
        <mxCell id="0gMWyx64knojHuvCs0xP-1" parent="0gMWyx64knojHuvCs0xP-0" />
        <mxCell id="0gMWyx64knojHuvCs0xP-2" value="" style="rounded=0;whiteSpace=wrap;html=1;fillColor=none;strokeColor=#B3B3B3;" parent="0gMWyx64knojHuvCs0xP-1" vertex="1">
          <mxGeometry x="555" y="340" width="445" height="310" as="geometry" />
        </mxCell>
        <mxCell id="0gMWyx64knojHuvCs0xP-3" value=":ViewLogin" style="rounded=1;whiteSpace=wrap;html=1;fillColor=#f8cecc;strokeColor=#b85450;" parent="0gMWyx64knojHuvCs0xP-1" vertex="1">
          <mxGeometry x="320" y="110" width="120" height="50" as="geometry" />
        </mxCell>
        <mxCell id="0gMWyx64knojHuvCs0xP-4" value=":GestioneAccesso&lt;br&gt;Controller" style="rounded=1;whiteSpace=wrap;html=1;fillColor=#d5e8d4;strokeColor=#82b366;" parent="0gMWyx64knojHuvCs0xP-1" vertex="1">
          <mxGeometry x="500" y="110" width="120" height="50" as="geometry" />
        </mxCell>
        <mxCell id="0gMWyx64knojHuvCs0xP-5" value="" style="endArrow=none;dashed=1;html=1;entryX=0.5;entryY=1;entryDx=0;entryDy=0;startArrow=none;" parent="0gMWyx64knojHuvCs0xP-1" source="0gMWyx64knojHuvCs0xP-9" target="0gMWyx64knojHuvCs0xP-4" edge="1">
          <mxGeometry width="50" height="50" relative="1" as="geometry">
            <mxPoint x="560" y="440" as="sourcePoint" />
            <mxPoint x="320" y="260" as="targetPoint" />
          </mxGeometry>
        </mxCell>
        <mxCell id="0gMWyx64knojHuvCs0xP-6" value="" style="endArrow=none;dashed=1;html=1;startArrow=none;" parent="0gMWyx64knojHuvCs0xP-1" source="0gMWyx64knojHuvCs0xP-7" edge="1">
          <mxGeometry width="50" height="50" relative="1" as="geometry">
            <mxPoint x="379.5" y="430" as="sourcePoint" />
            <mxPoint x="380" y="160" as="targetPoint" />
          </mxGeometry>
        </mxCell>
        <mxCell id="0gMWyx64knojHuvCs0xP-7" value="" style="rounded=0;whiteSpace=wrap;html=1;" parent="0gMWyx64knojHuvCs0xP-1" vertex="1">
          <mxGeometry x="375" y="190" width="10" height="60" as="geometry" />
        </mxCell>
        <mxCell id="0gMWyx64knojHuvCs0xP-8" value="" style="endArrow=none;dashed=1;html=1;" parent="0gMWyx64knojHuvCs0xP-1" target="0gMWyx64knojHuvCs0xP-7" edge="1">
          <mxGeometry width="50" height="50" relative="1" as="geometry">
            <mxPoint x="379.5" y="430.0000000000001" as="sourcePoint" />
            <mxPoint x="380" y="160" as="targetPoint" />
          </mxGeometry>
        </mxCell>
        <mxCell id="0gMWyx64knojHuvCs0xP-9" value="" style="rounded=0;whiteSpace=wrap;html=1;" parent="0gMWyx64knojHuvCs0xP-1" vertex="1">
          <mxGeometry x="555" y="200" width="10" height="50" as="geometry" />
        </mxCell>
        <mxCell id="0gMWyx64knojHuvCs0xP-10" value="" style="endArrow=none;dashed=1;html=1;entryX=0.5;entryY=1;entryDx=0;entryDy=0;" parent="0gMWyx64knojHuvCs0xP-1" target="0gMWyx64knojHuvCs0xP-9" edge="1">
          <mxGeometry width="50" height="50" relative="1" as="geometry">
            <mxPoint x="560" y="650" as="sourcePoint" />
            <mxPoint x="560" y="160" as="targetPoint" />
          </mxGeometry>
        </mxCell>
        <mxCell id="0gMWyx64knojHuvCs0xP-11" value="" style="endArrow=classic;html=1;entryX=0;entryY=0;entryDx=0;entryDy=0;" parent="0gMWyx64knojHuvCs0xP-1" target="0gMWyx64knojHuvCs0xP-9" edge="1">
          <mxGeometry width="50" height="50" relative="1" as="geometry">
            <mxPoint x="385" y="199" as="sourcePoint" />
            <mxPoint x="560" y="199" as="targetPoint" />
          </mxGeometry>
        </mxCell>
        <mxCell id="0gMWyx64knojHuvCs0xP-12" value="verificaCredenziali()" style="edgeLabel;html=1;align=center;verticalAlign=middle;resizable=0;points=[];" parent="0gMWyx64knojHuvCs0xP-11" vertex="1" connectable="0">
          <mxGeometry x="-0.2134" y="2" relative="1" as="geometry">
            <mxPoint x="17" y="-8" as="offset" />
          </mxGeometry>
        </mxCell>
        <mxCell id="0gMWyx64knojHuvCs0xP-13" value="" style="endArrow=openThin;html=1;exitX=0;exitY=0.591;exitDx=0;exitDy=0;dashed=1;exitPerimeter=0;endFill=0;" parent="0gMWyx64knojHuvCs0xP-1" source="0gMWyx64knojHuvCs0xP-9" edge="1">
          <mxGeometry width="50" height="50" relative="1" as="geometry">
            <mxPoint x="395" y="209" as="sourcePoint" />
            <mxPoint x="390" y="230" as="targetPoint" />
          </mxGeometry>
        </mxCell>
        <mxCell id="0gMWyx64knojHuvCs0xP-14" value="close()" style="edgeLabel;html=1;align=center;verticalAlign=middle;resizable=0;points=[];" parent="0gMWyx64knojHuvCs0xP-13" vertex="1" connectable="0">
          <mxGeometry x="-0.2134" y="2" relative="1" as="geometry">
            <mxPoint x="-18" y="8" as="offset" />
          </mxGeometry>
        </mxCell>
        <mxCell id="0gMWyx64knojHuvCs0xP-15" value="" style="shape=card;whiteSpace=wrap;html=1;strokeColor=#B3B3B3;fillColor=none;rotation=-90;flipV=1;size=7;" parent="0gMWyx64knojHuvCs0xP-1" vertex="1">
          <mxGeometry x="565" y="330" width="21.81" height="41.43" as="geometry" />
        </mxCell>
        <mxCell id="0gMWyx64knojHuvCs0xP-16" value=":HomeServizio" style="rounded=1;whiteSpace=wrap;html=1;fillColor=#f8cecc;strokeColor=#b85450;" parent="0gMWyx64knojHuvCs0xP-1" vertex="1">
          <mxGeometry x="586.63" y="280.2" width="113.37" height="39.8" as="geometry" />
        </mxCell>
        <mxCell id="0gMWyx64knojHuvCs0xP-17" value=":ViewRegistrazione" style="rounded=1;whiteSpace=wrap;html=1;fillColor=#f8cecc;strokeColor=#b85450;" parent="0gMWyx64knojHuvCs0xP-1" vertex="1">
          <mxGeometry x="730" y="280.2" width="113.37" height="39.8" as="geometry" />
        </mxCell>
        <mxCell id="0gMWyx64knojHuvCs0xP-18" value="" style="endArrow=none;dashed=1;html=1;entryX=0.48;entryY=1.01;entryDx=0;entryDy=0;entryPerimeter=0;" parent="0gMWyx64knojHuvCs0xP-1" target="0gMWyx64knojHuvCs0xP-16" edge="1">
          <mxGeometry width="50" height="50" relative="1" as="geometry">
            <mxPoint x="641" y="430" as="sourcePoint" />
            <mxPoint x="640" y="360" as="targetPoint" />
          </mxGeometry>
        </mxCell>
        <mxCell id="0gMWyx64knojHuvCs0xP-19" value="" style="endArrow=none;dashed=1;html=1;entryX=0.5;entryY=1;entryDx=0;entryDy=0;" parent="0gMWyx64knojHuvCs0xP-1" target="0gMWyx64knojHuvCs0xP-17" edge="1">
          <mxGeometry width="50" height="50" relative="1" as="geometry">
            <mxPoint x="787" y="530" as="sourcePoint" />
            <mxPoint x="640" y="400" as="targetPoint" />
          </mxGeometry>
        </mxCell>
        <mxCell id="0gMWyx64knojHuvCs0xP-20" value="&lt;font color=&quot;#808080&quot;&gt;alt&lt;/font&gt;" style="text;html=1;strokeColor=none;fillColor=none;align=center;verticalAlign=middle;whiteSpace=wrap;rounded=0;" parent="0gMWyx64knojHuvCs0xP-1" vertex="1">
          <mxGeometry x="555" y="340" width="40" height="20" as="geometry" />
        </mxCell>
        <mxCell id="0gMWyx64knojHuvCs0xP-21" value="" style="endArrow=classic;html=1;fillColor=#d5e8d4;strokeColor=#82b366;" parent="0gMWyx64knojHuvCs0xP-1" edge="1">
          <mxGeometry width="50" height="50" relative="1" as="geometry">
            <mxPoint x="560" y="400" as="sourcePoint" />
            <mxPoint x="640" y="400" as="targetPoint" />
          </mxGeometry>
        </mxCell>
        <mxCell id="0gMWyx64knojHuvCs0xP-22" value="show()" style="edgeLabel;html=1;align=center;verticalAlign=middle;resizable=0;points=[];" parent="0gMWyx64knojHuvCs0xP-21" vertex="1" connectable="0">
          <mxGeometry x="0.375" relative="1" as="geometry">
            <mxPoint x="-20" as="offset" />
          </mxGeometry>
        </mxCell>
        <mxCell id="0gMWyx64knojHuvCs0xP-23" value="" style="endArrow=classic;html=1;fillColor=#d5e8d4;strokeColor=#82b366;" parent="0gMWyx64knojHuvCs0xP-1" edge="1">
          <mxGeometry width="50" height="50" relative="1" as="geometry">
            <mxPoint x="560" y="500" as="sourcePoint" />
            <mxPoint x="785" y="500" as="targetPoint" />
          </mxGeometry>
        </mxCell>
        <mxCell id="0gMWyx64knojHuvCs0xP-24" value="show()" style="edgeLabel;html=1;align=center;verticalAlign=middle;resizable=0;points=[];" parent="0gMWyx64knojHuvCs0xP-23" vertex="1" connectable="0">
          <mxGeometry x="0.375" relative="1" as="geometry">
            <mxPoint x="-20" as="offset" />
          </mxGeometry>
        </mxCell>
        <mxCell id="0gMWyx64knojHuvCs0xP-25" value="" style="endArrow=none;dashed=1;html=1;fillColor=#dae8fc;strokeColor=#6c8ebf;" parent="0gMWyx64knojHuvCs0xP-1" edge="1">
          <mxGeometry width="50" height="50" relative="1" as="geometry">
            <mxPoint x="555" y="460" as="sourcePoint" />
            <mxPoint x="1000" y="460" as="targetPoint" />
          </mxGeometry>
        </mxCell>
        <mxCell id="0gMWyx64knojHuvCs0xP-26" value="&lt;font color=&quot;#007fff&quot;&gt;esito=ClienteRegistrato&lt;/font&gt;" style="text;html=1;strokeColor=none;fillColor=none;align=center;verticalAlign=middle;whiteSpace=wrap;rounded=0;" parent="0gMWyx64knojHuvCs0xP-1" vertex="1">
          <mxGeometry x="555.91" y="360" width="134.09" height="20" as="geometry" />
        </mxCell>
        <mxCell id="0gMWyx64knojHuvCs0xP-27" value="&lt;span style=&quot;color: rgb(0 , 127 , 255)&quot;&gt;esito=ClienteNonRegistrato&lt;/span&gt;" style="text;html=1;strokeColor=none;fillColor=none;align=center;verticalAlign=middle;whiteSpace=wrap;rounded=0;" parent="0gMWyx64knojHuvCs0xP-1" vertex="1">
          <mxGeometry x="555.91" y="460" width="155" height="20" as="geometry" />
        </mxCell>
        <mxCell id="0gMWyx64knojHuvCs0xP-28" value="" style="endArrow=none;dashed=1;html=1;fillColor=#dae8fc;strokeColor=#6c8ebf;" parent="0gMWyx64knojHuvCs0xP-1" edge="1">
          <mxGeometry width="50" height="50" relative="1" as="geometry">
            <mxPoint x="555.91" y="550" as="sourcePoint" />
            <mxPoint x="1000.91" y="550" as="targetPoint" />
          </mxGeometry>
        </mxCell>
        <mxCell id="0gMWyx64knojHuvCs0xP-29" value="&lt;span style=&quot;color: rgb(0 , 127 , 255)&quot;&gt;esito=PasswordSbagliata&lt;/span&gt;" style="text;html=1;strokeColor=none;fillColor=none;align=left;verticalAlign=middle;whiteSpace=wrap;rounded=0;" parent="0gMWyx64knojHuvCs0xP-1" vertex="1">
          <mxGeometry x="561.36" y="550" width="144.09" height="20" as="geometry" />
        </mxCell>
        <mxCell id="0gMWyx64knojHuvCs0xP-30" value=":ViewLogin" style="rounded=1;whiteSpace=wrap;html=1;fillColor=#f8cecc;strokeColor=#b85450;" parent="0gMWyx64knojHuvCs0xP-1" vertex="1">
          <mxGeometry x="880" y="280.2" width="113.37" height="39.8" as="geometry" />
        </mxCell>
        <mxCell id="0gMWyx64knojHuvCs0xP-31" value="" style="endArrow=none;dashed=1;html=1;entryX=0.5;entryY=1;entryDx=0;entryDy=0;" parent="0gMWyx64knojHuvCs0xP-1" target="0gMWyx64knojHuvCs0xP-30" edge="1">
          <mxGeometry width="50" height="50" relative="1" as="geometry">
            <mxPoint x="937" y="620" as="sourcePoint" />
            <mxPoint x="940.0049999999999" y="320" as="targetPoint" />
          </mxGeometry>
        </mxCell>
        <mxCell id="0gMWyx64knojHuvCs0xP-32" value="" style="endArrow=classic;html=1;fillColor=#d5e8d4;strokeColor=#82b366;" parent="0gMWyx64knojHuvCs0xP-1" edge="1">
          <mxGeometry width="50" height="50" relative="1" as="geometry">
            <mxPoint x="560" y="600" as="sourcePoint" />
            <mxPoint x="934.55" y="600" as="targetPoint" />
          </mxGeometry>
        </mxCell>
        <mxCell id="0gMWyx64knojHuvCs0xP-33" value="show()" style="edgeLabel;html=1;align=center;verticalAlign=middle;resizable=0;points=[];" parent="0gMWyx64knojHuvCs0xP-32" vertex="1" connectable="0">
          <mxGeometry x="0.375" relative="1" as="geometry">
            <mxPoint x="-20" as="offset" />
          </mxGeometry>
        </mxCell>
      </root>
    </mxGraphModel>
  </diagram>
  <diagram id="PBbua5eW3GSDMu99ObHb" name="LoginFarmacista">
    <mxGraphModel dx="1422" dy="762" grid="1" gridSize="10" guides="1" tooltips="1" connect="1" arrows="1" fold="1" page="1" pageScale="1" pageWidth="850" pageHeight="1100" math="0" shadow="0">
      <root>
        <mxCell id="NFY0CdZkipjBrTeFlE-L-0" />
        <mxCell id="NFY0CdZkipjBrTeFlE-L-1" parent="NFY0CdZkipjBrTeFlE-L-0" />
        <mxCell id="NFY0CdZkipjBrTeFlE-L-2" value=":ViewLoginFarmacista" style="rounded=1;whiteSpace=wrap;html=1;fillColor=#f8cecc;strokeColor=#b85450;" parent="NFY0CdZkipjBrTeFlE-L-1" vertex="1">
          <mxGeometry x="320" y="110" width="120" height="50" as="geometry" />
        </mxCell>
        <mxCell id="NFY0CdZkipjBrTeFlE-L-3" value=":GestioneAccesso&lt;br&gt;Controller" style="rounded=1;whiteSpace=wrap;html=1;fillColor=#d5e8d4;strokeColor=#82b366;" parent="NFY0CdZkipjBrTeFlE-L-1" vertex="1">
          <mxGeometry x="500" y="110" width="120" height="50" as="geometry" />
        </mxCell>
        <mxCell id="NFY0CdZkipjBrTeFlE-L-4" value="" style="endArrow=none;dashed=1;html=1;entryX=0.5;entryY=1;entryDx=0;entryDy=0;startArrow=none;" parent="NFY0CdZkipjBrTeFlE-L-1" source="NFY0CdZkipjBrTeFlE-L-8" target="NFY0CdZkipjBrTeFlE-L-3" edge="1">
          <mxGeometry width="50" height="50" relative="1" as="geometry">
            <mxPoint x="560" y="440" as="sourcePoint" />
            <mxPoint x="320" y="260" as="targetPoint" />
          </mxGeometry>
        </mxCell>
        <mxCell id="NFY0CdZkipjBrTeFlE-L-5" value="" style="endArrow=none;dashed=1;html=1;startArrow=none;" parent="NFY0CdZkipjBrTeFlE-L-1" source="NFY0CdZkipjBrTeFlE-L-6" edge="1">
          <mxGeometry width="50" height="50" relative="1" as="geometry">
            <mxPoint x="379.5" y="430" as="sourcePoint" />
            <mxPoint x="380" y="160" as="targetPoint" />
          </mxGeometry>
        </mxCell>
        <mxCell id="NFY0CdZkipjBrTeFlE-L-6" value="" style="rounded=0;whiteSpace=wrap;html=1;" parent="NFY0CdZkipjBrTeFlE-L-1" vertex="1">
          <mxGeometry x="375" y="190" width="10" height="120" as="geometry" />
        </mxCell>
        <mxCell id="NFY0CdZkipjBrTeFlE-L-7" value="" style="endArrow=none;dashed=1;html=1;" parent="NFY0CdZkipjBrTeFlE-L-1" target="NFY0CdZkipjBrTeFlE-L-6" edge="1">
          <mxGeometry width="50" height="50" relative="1" as="geometry">
            <mxPoint x="379.5" y="430.0000000000001" as="sourcePoint" />
            <mxPoint x="380" y="160" as="targetPoint" />
          </mxGeometry>
        </mxCell>
        <mxCell id="NFY0CdZkipjBrTeFlE-L-8" value="" style="rounded=0;whiteSpace=wrap;html=1;" parent="NFY0CdZkipjBrTeFlE-L-1" vertex="1">
          <mxGeometry x="555" y="200" width="10" height="90" as="geometry" />
        </mxCell>
        <mxCell id="NFY0CdZkipjBrTeFlE-L-9" value="" style="endArrow=none;dashed=1;html=1;entryX=0.5;entryY=1;entryDx=0;entryDy=0;" parent="NFY0CdZkipjBrTeFlE-L-1" target="NFY0CdZkipjBrTeFlE-L-8" edge="1">
          <mxGeometry width="50" height="50" relative="1" as="geometry">
            <mxPoint x="560" y="500" as="sourcePoint" />
            <mxPoint x="560" y="160" as="targetPoint" />
          </mxGeometry>
        </mxCell>
        <mxCell id="NFY0CdZkipjBrTeFlE-L-10" value="" style="endArrow=classic;html=1;entryX=0;entryY=0;entryDx=0;entryDy=0;" parent="NFY0CdZkipjBrTeFlE-L-1" target="NFY0CdZkipjBrTeFlE-L-8" edge="1">
          <mxGeometry width="50" height="50" relative="1" as="geometry">
            <mxPoint x="385" y="199" as="sourcePoint" />
            <mxPoint x="560" y="199" as="targetPoint" />
          </mxGeometry>
        </mxCell>
        <mxCell id="NFY0CdZkipjBrTeFlE-L-11" value="verificaCredenziali()" style="edgeLabel;html=1;align=center;verticalAlign=middle;resizable=0;points=[];" parent="NFY0CdZkipjBrTeFlE-L-10" vertex="1" connectable="0">
          <mxGeometry x="-0.2134" y="2" relative="1" as="geometry">
            <mxPoint x="17" y="-8" as="offset" />
          </mxGeometry>
        </mxCell>
        <mxCell id="NFY0CdZkipjBrTeFlE-L-12" value="" style="endArrow=openThin;html=1;exitX=0;exitY=0.75;exitDx=0;exitDy=0;dashed=1;endFill=0;entryX=0.922;entryY=0.651;entryDx=0;entryDy=0;entryPerimeter=0;" parent="NFY0CdZkipjBrTeFlE-L-1" source="NFY0CdZkipjBrTeFlE-L-8" target="NFY0CdZkipjBrTeFlE-L-6" edge="1">
          <mxGeometry width="50" height="50" relative="1" as="geometry">
            <mxPoint x="395" y="209" as="sourcePoint" />
            <mxPoint x="384" y="265" as="targetPoint" />
          </mxGeometry>
        </mxCell>
        <mxCell id="NFY0CdZkipjBrTeFlE-L-13" value="close()" style="edgeLabel;html=1;align=center;verticalAlign=middle;resizable=0;points=[];" parent="NFY0CdZkipjBrTeFlE-L-12" vertex="1" connectable="0">
          <mxGeometry x="-0.2134" y="2" relative="1" as="geometry">
            <mxPoint x="-18" y="8" as="offset" />
          </mxGeometry>
        </mxCell>
        <mxCell id="NFY0CdZkipjBrTeFlE-L-14" value=":HomeGestione" style="rounded=1;whiteSpace=wrap;html=1;fillColor=#f8cecc;strokeColor=#b85450;" parent="NFY0CdZkipjBrTeFlE-L-1" vertex="1">
          <mxGeometry x="640" y="330" width="113.37" height="39.8" as="geometry" />
        </mxCell>
        <mxCell id="NFY0CdZkipjBrTeFlE-L-15" value="" style="endArrow=none;dashed=1;html=1;entryX=0.48;entryY=1.01;entryDx=0;entryDy=0;entryPerimeter=0;" parent="NFY0CdZkipjBrTeFlE-L-1" target="NFY0CdZkipjBrTeFlE-L-14" edge="1">
          <mxGeometry width="50" height="50" relative="1" as="geometry">
            <mxPoint x="694.37" y="479.8" as="sourcePoint" />
            <mxPoint x="693.37" y="409.8" as="targetPoint" />
          </mxGeometry>
        </mxCell>
        <mxCell id="NFY0CdZkipjBrTeFlE-L-16" value="" style="endArrow=classic;html=1;" parent="NFY0CdZkipjBrTeFlE-L-1" edge="1">
          <mxGeometry width="50" height="50" relative="1" as="geometry">
            <mxPoint x="560" y="400" as="sourcePoint" />
            <mxPoint x="695" y="400" as="targetPoint" />
          </mxGeometry>
        </mxCell>
        <mxCell id="NFY0CdZkipjBrTeFlE-L-17" value="show()" style="edgeLabel;html=1;align=center;verticalAlign=middle;resizable=0;points=[];" parent="NFY0CdZkipjBrTeFlE-L-16" vertex="1" connectable="0">
          <mxGeometry x="-0.2134" y="2" relative="1" as="geometry">
            <mxPoint x="7" y="-8" as="offset" />
          </mxGeometry>
        </mxCell>
      </root>
    </mxGraphModel>
  </diagram>
  <diagram id="TcA_HujcXxNgP07NNQC0" name="RegistrazioneUtente">
    <mxGraphModel dx="1422" dy="762" grid="1" gridSize="10" guides="1" tooltips="1" connect="1" arrows="1" fold="1" page="1" pageScale="1" pageWidth="850" pageHeight="1100" math="0" shadow="0">
      <root>
        <mxCell id="idmsNMj_VtEVClPX6DH8-0" />
        <mxCell id="idmsNMj_VtEVClPX6DH8-1" parent="idmsNMj_VtEVClPX6DH8-0" />
        <mxCell id="idmsNMj_VtEVClPX6DH8-2" value="" style="shape=umlActor;verticalLabelPosition=bottom;verticalAlign=top;html=1;outlineConnect=0;" parent="idmsNMj_VtEVClPX6DH8-1" vertex="1">
          <mxGeometry x="91.68" y="230" width="30" height="60" as="geometry" />
        </mxCell>
        <mxCell id="idmsNMj_VtEVClPX6DH8-3" value=":ViewRegistrazione" style="rounded=1;whiteSpace=wrap;html=1;fillColor=#f8cecc;strokeColor=#b85450;" parent="idmsNMj_VtEVClPX6DH8-1" vertex="1">
          <mxGeometry x="209.9999999999999" y="300.20000000000005" width="113.37" height="39.8" as="geometry" />
        </mxCell>
        <mxCell id="idmsNMj_VtEVClPX6DH8-4" value="show" style="text;html=1;align=center;verticalAlign=middle;resizable=0;points=[];autosize=1;strokeColor=none;" parent="idmsNMj_VtEVClPX6DH8-1" vertex="1">
          <mxGeometry x="163.37" y="350" width="40" height="20" as="geometry" />
        </mxCell>
        <mxCell id="idmsNMj_VtEVClPX6DH8-5" value=":GestioneAccesso&lt;br&gt;Controller" style="rounded=1;whiteSpace=wrap;html=1;fillColor=#d5e8d4;strokeColor=#82b366;" parent="idmsNMj_VtEVClPX6DH8-1" vertex="1">
          <mxGeometry x="369.9999999999999" y="300.20000000000005" width="113.37" height="39.8" as="geometry" />
        </mxCell>
        <mxCell id="idmsNMj_VtEVClPX6DH8-6" value="" style="shape=umlActor;verticalLabelPosition=bottom;verticalAlign=top;html=1;outlineConnect=0;" parent="idmsNMj_VtEVClPX6DH8-1" vertex="1">
          <mxGeometry x="574.6800000000001" y="219.99999999999983" width="30" height="60" as="geometry" />
        </mxCell>
        <mxCell id="idmsNMj_VtEVClPX6DH8-7" value=":ViewVerificaIdentità" style="rounded=1;whiteSpace=wrap;html=1;fillColor=#f8cecc;strokeColor=#b85450;" parent="idmsNMj_VtEVClPX6DH8-1" vertex="1">
          <mxGeometry x="692" y="300.19999999999993" width="113.37" height="39.8" as="geometry" />
        </mxCell>
        <mxCell id="idmsNMj_VtEVClPX6DH8-8" value=":UtentiController" style="rounded=1;whiteSpace=wrap;html=1;fillColor=#d5e8d4;strokeColor=#82b366;" parent="idmsNMj_VtEVClPX6DH8-1" vertex="1">
          <mxGeometry x="852.6799999999998" y="300.19999999999993" width="113.37" height="39.8" as="geometry" />
        </mxCell>
        <mxCell id="idmsNMj_VtEVClPX6DH8-9" value=":ClienteRegistrato" style="rounded=1;whiteSpace=wrap;html=1;fillColor=#dae8fc;strokeColor=#6c8ebf;" parent="idmsNMj_VtEVClPX6DH8-1" vertex="1">
          <mxGeometry x="1012" y="300.20000000000016" width="113.37" height="39.8" as="geometry" />
        </mxCell>
        <mxCell id="idmsNMj_VtEVClPX6DH8-10" value="create" style="text;html=1;align=center;verticalAlign=middle;resizable=0;points=[];autosize=1;strokeColor=none;" parent="idmsNMj_VtEVClPX6DH8-1" vertex="1">
          <mxGeometry x="490" y="490.00000000000006" width="50" height="20" as="geometry" />
        </mxCell>
        <mxCell id="idmsNMj_VtEVClPX6DH8-11" value="" style="endArrow=classic;html=1;" parent="idmsNMj_VtEVClPX6DH8-1" edge="1">
          <mxGeometry width="50" height="50" relative="1" as="geometry">
            <mxPoint x="428" y="510" as="sourcePoint" />
            <mxPoint x="1070" y="510" as="targetPoint" />
          </mxGeometry>
        </mxCell>
        <mxCell id="idmsNMj_VtEVClPX6DH8-12" value="Cliente" style="rounded=1;whiteSpace=wrap;html=1;" parent="idmsNMj_VtEVClPX6DH8-1" vertex="1">
          <mxGeometry x="49.99999999999988" y="300.20000000000005" width="113.37" height="39.8" as="geometry" />
        </mxCell>
        <mxCell id="idmsNMj_VtEVClPX6DH8-13" value="" style="endArrow=none;dashed=1;html=1;entryX=0.5;entryY=1;entryDx=0;entryDy=0;" parent="idmsNMj_VtEVClPX6DH8-1" target="idmsNMj_VtEVClPX6DH8-12" edge="1">
          <mxGeometry width="50" height="50" relative="1" as="geometry">
            <mxPoint x="107" y="880" as="sourcePoint" />
            <mxPoint x="550" y="390" as="targetPoint" />
          </mxGeometry>
        </mxCell>
        <mxCell id="idmsNMj_VtEVClPX6DH8-14" value="" style="endArrow=none;dashed=1;html=1;entryX=0.5;entryY=1;entryDx=0;entryDy=0;" parent="idmsNMj_VtEVClPX6DH8-1" target="idmsNMj_VtEVClPX6DH8-3" edge="1">
          <mxGeometry width="50" height="50" relative="1" as="geometry">
            <mxPoint x="267" y="880" as="sourcePoint" />
            <mxPoint x="240.31499999999983" y="369.2500000000001" as="targetPoint" />
          </mxGeometry>
        </mxCell>
        <mxCell id="idmsNMj_VtEVClPX6DH8-15" value="" style="endArrow=none;dashed=1;html=1;entryX=0.5;entryY=1;entryDx=0;entryDy=0;" parent="idmsNMj_VtEVClPX6DH8-1" target="idmsNMj_VtEVClPX6DH8-5" edge="1">
          <mxGeometry width="50" height="50" relative="1" as="geometry">
            <mxPoint x="427" y="880" as="sourcePoint" />
            <mxPoint x="423.44500000000016" y="358.7100000000001" as="targetPoint" />
            <Array as="points">
              <mxPoint x="427" y="470" />
            </Array>
          </mxGeometry>
        </mxCell>
        <mxCell id="idmsNMj_VtEVClPX6DH8-16" value="Farmacista" style="rounded=1;whiteSpace=wrap;html=1;" parent="idmsNMj_VtEVClPX6DH8-1" vertex="1">
          <mxGeometry x="532.9999999999999" y="300.20000000000005" width="113.37" height="39.8" as="geometry" />
        </mxCell>
        <mxCell id="idmsNMj_VtEVClPX6DH8-17" value="" style="endArrow=openThin;html=1;endFill=0;" parent="idmsNMj_VtEVClPX6DH8-1" edge="1">
          <mxGeometry width="50" height="50" relative="1" as="geometry">
            <mxPoint x="107" y="370" as="sourcePoint" />
            <mxPoint x="266" y="370" as="targetPoint" />
          </mxGeometry>
        </mxCell>
        <mxCell id="idmsNMj_VtEVClPX6DH8-18" value="registra" style="text;html=1;align=center;verticalAlign=middle;resizable=0;points=[];autosize=1;strokeColor=none;" parent="idmsNMj_VtEVClPX6DH8-1" vertex="1">
          <mxGeometry x="154.68" y="398.53" width="60" height="20" as="geometry" />
        </mxCell>
        <mxCell id="idmsNMj_VtEVClPX6DH8-19" value="" style="endArrow=openThin;html=1;endFill=0;" parent="idmsNMj_VtEVClPX6DH8-1" edge="1">
          <mxGeometry width="50" height="50" relative="1" as="geometry">
            <mxPoint x="108.31" y="418.5300000000001" as="sourcePoint" />
            <mxPoint x="267.31" y="418.5300000000001" as="targetPoint" />
          </mxGeometry>
        </mxCell>
        <mxCell id="idmsNMj_VtEVClPX6DH8-20" value="Registra()" style="text;html=1;align=center;verticalAlign=middle;resizable=0;points=[];autosize=1;strokeColor=none;" parent="idmsNMj_VtEVClPX6DH8-1" vertex="1">
          <mxGeometry x="311.37" y="438.80999999999995" width="70" height="20" as="geometry" />
        </mxCell>
        <mxCell id="idmsNMj_VtEVClPX6DH8-21" value="" style="endArrow=classic;html=1;" parent="idmsNMj_VtEVClPX6DH8-1" edge="1">
          <mxGeometry width="50" height="50" relative="1" as="geometry">
            <mxPoint x="268" y="458.81000000000006" as="sourcePoint" />
            <mxPoint x="427" y="458.81000000000006" as="targetPoint" />
          </mxGeometry>
        </mxCell>
        <mxCell id="idmsNMj_VtEVClPX6DH8-22" value="" style="endArrow=none;dashed=1;html=1;entryX=0.5;entryY=1;entryDx=0;entryDy=0;" parent="idmsNMj_VtEVClPX6DH8-1" target="idmsNMj_VtEVClPX6DH8-16" edge="1">
          <mxGeometry width="50" height="50" relative="1" as="geometry">
            <mxPoint x="590" y="920" as="sourcePoint" />
            <mxPoint x="585.0250000000002" y="350.0000000000001" as="targetPoint" />
          </mxGeometry>
        </mxCell>
        <mxCell id="idmsNMj_VtEVClPX6DH8-23" value="" style="endArrow=none;dashed=1;html=1;entryX=0.5;entryY=1;entryDx=0;entryDy=0;" parent="idmsNMj_VtEVClPX6DH8-1" target="idmsNMj_VtEVClPX6DH8-8" edge="1">
          <mxGeometry width="50" height="50" relative="1" as="geometry">
            <mxPoint x="909" y="920" as="sourcePoint" />
            <mxPoint x="935.0250000000001" y="340.0000000000001" as="targetPoint" />
          </mxGeometry>
        </mxCell>
        <mxCell id="idmsNMj_VtEVClPX6DH8-24" value="" style="endArrow=none;dashed=1;html=1;entryX=0.5;entryY=1;entryDx=0;entryDy=0;" parent="idmsNMj_VtEVClPX6DH8-1" target="idmsNMj_VtEVClPX6DH8-9" edge="1">
          <mxGeometry width="50" height="50" relative="1" as="geometry">
            <mxPoint x="1069" y="920" as="sourcePoint" />
            <mxPoint x="1095.025" y="338.51" as="targetPoint" />
          </mxGeometry>
        </mxCell>
        <mxCell id="idmsNMj_VtEVClPX6DH8-25" value="" style="endArrow=none;html=1;dashed=1;endFill=0;startArrow=openThin;startFill=0;" parent="idmsNMj_VtEVClPX6DH8-1" edge="1">
          <mxGeometry width="50" height="50" relative="1" as="geometry">
            <mxPoint x="266.87" y="560" as="sourcePoint" />
            <mxPoint x="425.87" y="560.19" as="targetPoint" />
          </mxGeometry>
        </mxCell>
        <mxCell id="idmsNMj_VtEVClPX6DH8-26" value="show" style="text;html=1;align=center;verticalAlign=middle;resizable=0;points=[];autosize=1;strokeColor=none;" parent="idmsNMj_VtEVClPX6DH8-1" vertex="1">
          <mxGeometry x="646.37" y="590" width="40" height="20" as="geometry" />
        </mxCell>
        <mxCell id="idmsNMj_VtEVClPX6DH8-27" value="" style="endArrow=openThin;html=1;endFill=0;" parent="idmsNMj_VtEVClPX6DH8-1" edge="1">
          <mxGeometry width="50" height="50" relative="1" as="geometry">
            <mxPoint x="590" y="610.0000000000001" as="sourcePoint" />
            <mxPoint x="749" y="610.0000000000001" as="targetPoint" />
          </mxGeometry>
        </mxCell>
        <mxCell id="idmsNMj_VtEVClPX6DH8-28" value="ricercaUtente" style="text;html=1;align=center;verticalAlign=middle;resizable=0;points=[];autosize=1;strokeColor=none;" parent="idmsNMj_VtEVClPX6DH8-1" vertex="1">
          <mxGeometry x="622.6800000000001" y="638.53" width="90" height="20" as="geometry" />
        </mxCell>
        <mxCell id="idmsNMj_VtEVClPX6DH8-29" value="" style="endArrow=openThin;html=1;endFill=0;" parent="idmsNMj_VtEVClPX6DH8-1" edge="1">
          <mxGeometry width="50" height="50" relative="1" as="geometry">
            <mxPoint x="591.31" y="658.5300000000001" as="sourcePoint" />
            <mxPoint x="750.31" y="658.5300000000001" as="targetPoint" />
          </mxGeometry>
        </mxCell>
        <mxCell id="idmsNMj_VtEVClPX6DH8-30" value="" style="endArrow=none;dashed=1;html=1;entryX=0.5;entryY=1;entryDx=0;entryDy=0;endFill=0;" parent="idmsNMj_VtEVClPX6DH8-1" target="idmsNMj_VtEVClPX6DH8-7" edge="1">
          <mxGeometry width="50" height="50" relative="1" as="geometry">
            <mxPoint x="749" y="920" as="sourcePoint" />
            <mxPoint x="759.9950000000001" y="340.0000000000001" as="targetPoint" />
          </mxGeometry>
        </mxCell>
        <mxCell id="idmsNMj_VtEVClPX6DH8-31" value="ricercaUtente()" style="text;html=1;align=center;verticalAlign=middle;resizable=0;points=[];autosize=1;strokeColor=none;" parent="idmsNMj_VtEVClPX6DH8-1" vertex="1">
          <mxGeometry x="781.37" y="670" width="90" height="20" as="geometry" />
        </mxCell>
        <mxCell id="idmsNMj_VtEVClPX6DH8-32" value="" style="endArrow=classic;html=1;" parent="idmsNMj_VtEVClPX6DH8-1" edge="1">
          <mxGeometry width="50" height="50" relative="1" as="geometry">
            <mxPoint x="750" y="690" as="sourcePoint" />
            <mxPoint x="908.9999999999998" y="690" as="targetPoint" />
          </mxGeometry>
        </mxCell>
        <mxCell id="idmsNMj_VtEVClPX6DH8-33" value="utente" style="text;html=1;align=center;verticalAlign=middle;resizable=0;points=[];autosize=1;strokeColor=none;" parent="idmsNMj_VtEVClPX6DH8-1" vertex="1">
          <mxGeometry x="802.6800000000001" y="718.53" width="50" height="20" as="geometry" />
        </mxCell>
        <mxCell id="idmsNMj_VtEVClPX6DH8-34" value="" style="endArrow=none;html=1;dashed=1;endFill=0;startArrow=openThin;startFill=0;" parent="idmsNMj_VtEVClPX6DH8-1" edge="1">
          <mxGeometry width="50" height="50" relative="1" as="geometry">
            <mxPoint x="751.3099999999997" y="738.5300000000002" as="sourcePoint" />
            <mxPoint x="910.31" y="738.5300000000002" as="targetPoint" />
          </mxGeometry>
        </mxCell>
        <mxCell id="idmsNMj_VtEVClPX6DH8-35" value="confermaUtente()" style="text;html=1;align=center;verticalAlign=middle;resizable=0;points=[];autosize=1;strokeColor=none;" parent="idmsNMj_VtEVClPX6DH8-1" vertex="1">
          <mxGeometry x="769.5500000000001" y="780" width="110" height="20" as="geometry" />
        </mxCell>
        <mxCell id="idmsNMj_VtEVClPX6DH8-36" value="" style="endArrow=classic;html=1;" parent="idmsNMj_VtEVClPX6DH8-1" edge="1">
          <mxGeometry width="50" height="50" relative="1" as="geometry">
            <mxPoint x="748.1799999999997" y="800.0000000000002" as="sourcePoint" />
            <mxPoint x="907.18" y="800.0000000000002" as="targetPoint" />
          </mxGeometry>
        </mxCell>
        <mxCell id="idmsNMj_VtEVClPX6DH8-37" value="verificaUtente()" style="text;html=1;align=center;verticalAlign=middle;resizable=0;points=[];autosize=1;strokeColor=none;" parent="idmsNMj_VtEVClPX6DH8-1" vertex="1">
          <mxGeometry x="936.3700000000001" y="810" width="100" height="20" as="geometry" />
        </mxCell>
        <mxCell id="idmsNMj_VtEVClPX6DH8-38" value="" style="endArrow=classic;html=1;" parent="idmsNMj_VtEVClPX6DH8-1" edge="1">
          <mxGeometry width="50" height="50" relative="1" as="geometry">
            <mxPoint x="909.9999999999998" y="830.0000000000002" as="sourcePoint" />
            <mxPoint x="1068.9999999999998" y="830.0000000000002" as="targetPoint" />
          </mxGeometry>
        </mxCell>
        <mxCell id="idmsNMj_VtEVClPX6DH8-39" value="contermaUtente" style="text;html=1;align=center;verticalAlign=middle;resizable=0;points=[];autosize=1;strokeColor=none;" parent="idmsNMj_VtEVClPX6DH8-1" vertex="1">
          <mxGeometry x="614.5500000000001" y="750" width="100" height="20" as="geometry" />
        </mxCell>
        <mxCell id="idmsNMj_VtEVClPX6DH8-40" value="" style="endArrow=openThin;html=1;endFill=0;" parent="idmsNMj_VtEVClPX6DH8-1" edge="1">
          <mxGeometry width="50" height="50" relative="1" as="geometry">
            <mxPoint x="588.1799999999997" y="770.0000000000002" as="sourcePoint" />
            <mxPoint x="748" y="770.0000000000002" as="targetPoint" />
          </mxGeometry>
        </mxCell>
        <mxCell id="idmsNMj_VtEVClPX6DH8-41" value="" style="endArrow=none;html=1;dashed=1;endFill=0;startArrow=openThin;startFill=0;" parent="idmsNMj_VtEVClPX6DH8-1" edge="1">
          <mxGeometry width="50" height="50" relative="1" as="geometry">
            <mxPoint x="749" y="890" as="sourcePoint" />
            <mxPoint x="907.1799999999998" y="890.19" as="targetPoint" />
          </mxGeometry>
        </mxCell>
        <mxCell id="idmsNMj_VtEVClPX6DH8-42" value="" style="endArrow=none;html=1;dashed=1;endFill=0;startArrow=openThin;startFill=0;" parent="idmsNMj_VtEVClPX6DH8-1" edge="1">
          <mxGeometry width="50" height="50" relative="1" as="geometry">
            <mxPoint x="909" y="870" as="sourcePoint" />
            <mxPoint x="1068" y="870.19" as="targetPoint" />
          </mxGeometry>
        </mxCell>
      </root>
    </mxGraphModel>
  </diagram>
  <diagram id="Wzn-BWHlTJEj33x2PqCz" name="NuovaPrenotazione">
    <mxGraphModel dx="1422" dy="762" grid="1" gridSize="10" guides="1" tooltips="1" connect="1" arrows="1" fold="1" page="1" pageScale="1" pageWidth="827" pageHeight="1169" math="0" shadow="0">
      <root>
        <mxCell id="_ORYt1C13AhzwcyPVOTH-0" />
        <mxCell id="_ORYt1C13AhzwcyPVOTH-1" parent="_ORYt1C13AhzwcyPVOTH-0" />
        <mxCell id="JPX6_1QACBRN3oUDiK-G-0" value="" style="shape=umlActor;verticalLabelPosition=bottom;verticalAlign=top;html=1;outlineConnect=0;" parent="_ORYt1C13AhzwcyPVOTH-1" vertex="1">
          <mxGeometry x="91.68" y="230" width="30" height="60" as="geometry" />
        </mxCell>
        <mxCell id="JPX6_1QACBRN3oUDiK-G-1" value=":ViewNuovaPrenotazione" style="rounded=1;whiteSpace=wrap;html=1;fillColor=#f8cecc;strokeColor=#b85450;" parent="_ORYt1C13AhzwcyPVOTH-1" vertex="1">
          <mxGeometry x="199" y="300.2" width="139" height="39.8" as="geometry" />
        </mxCell>
        <mxCell id="JPX6_1QACBRN3oUDiK-G-2" value="show" style="text;html=1;align=center;verticalAlign=middle;resizable=0;points=[];autosize=1;strokeColor=none;" parent="_ORYt1C13AhzwcyPVOTH-1" vertex="1">
          <mxGeometry x="163.37" y="350" width="40" height="20" as="geometry" />
        </mxCell>
        <mxCell id="JPX6_1QACBRN3oUDiK-G-4" value=":GestionePrenotazioni&lt;br&gt;Controller" style="rounded=1;whiteSpace=wrap;html=1;fillColor=#d5e8d4;strokeColor=#82b366;" parent="_ORYt1C13AhzwcyPVOTH-1" vertex="1">
          <mxGeometry x="370" y="300.2" width="120" height="39.8" as="geometry" />
        </mxCell>
        <mxCell id="JPX6_1QACBRN3oUDiK-G-17" value="create" style="text;html=1;align=center;verticalAlign=middle;resizable=0;points=[];autosize=1;strokeColor=none;" parent="_ORYt1C13AhzwcyPVOTH-1" vertex="1">
          <mxGeometry x="490" y="490.00000000000006" width="50" height="20" as="geometry" />
        </mxCell>
        <mxCell id="JPX6_1QACBRN3oUDiK-G-18" value="" style="endArrow=classic;html=1;" parent="_ORYt1C13AhzwcyPVOTH-1" edge="1">
          <mxGeometry width="50" height="50" relative="1" as="geometry">
            <mxPoint x="428" y="510" as="sourcePoint" />
            <mxPoint x="590" y="510" as="targetPoint" />
          </mxGeometry>
        </mxCell>
        <mxCell id="JPX6_1QACBRN3oUDiK-G-26" value="Cliente Registrato" style="rounded=1;whiteSpace=wrap;html=1;" parent="_ORYt1C13AhzwcyPVOTH-1" vertex="1">
          <mxGeometry x="49.99999999999988" y="300.20000000000005" width="113.37" height="39.8" as="geometry" />
        </mxCell>
        <mxCell id="AWgaOJb2uCznWJsoljDG-0" value="" style="endArrow=none;dashed=1;html=1;entryX=0.5;entryY=1;entryDx=0;entryDy=0;" parent="_ORYt1C13AhzwcyPVOTH-1" target="JPX6_1QACBRN3oUDiK-G-26" edge="1">
          <mxGeometry width="50" height="50" relative="1" as="geometry">
            <mxPoint x="107" y="880" as="sourcePoint" />
            <mxPoint x="550" y="390" as="targetPoint" />
          </mxGeometry>
        </mxCell>
        <mxCell id="AWgaOJb2uCznWJsoljDG-1" value="" style="endArrow=none;dashed=1;html=1;entryX=0.5;entryY=1;entryDx=0;entryDy=0;" parent="_ORYt1C13AhzwcyPVOTH-1" edge="1">
          <mxGeometry width="50" height="50" relative="1" as="geometry">
            <mxPoint x="266" y="880" as="sourcePoint" />
            <mxPoint x="266" y="340" as="targetPoint" />
          </mxGeometry>
        </mxCell>
        <mxCell id="AWgaOJb2uCznWJsoljDG-2" value="" style="endArrow=none;dashed=1;html=1;entryX=0.467;entryY=1.023;entryDx=0;entryDy=0;entryPerimeter=0;" parent="_ORYt1C13AhzwcyPVOTH-1" target="JPX6_1QACBRN3oUDiK-G-4" edge="1">
          <mxGeometry width="50" height="50" relative="1" as="geometry">
            <mxPoint x="427" y="880" as="sourcePoint" />
            <mxPoint x="430" y="340" as="targetPoint" />
            <Array as="points">
              <mxPoint x="427" y="470" />
            </Array>
          </mxGeometry>
        </mxCell>
        <mxCell id="AWgaOJb2uCznWJsoljDG-3" value=":Prenotazione" style="rounded=1;whiteSpace=wrap;html=1;fillColor=#dae8fc;strokeColor=#6c8ebf;" parent="_ORYt1C13AhzwcyPVOTH-1" vertex="1">
          <mxGeometry x="532.9999999999999" y="300.20000000000005" width="113.37" height="39.8" as="geometry" />
        </mxCell>
        <mxCell id="AWgaOJb2uCznWJsoljDG-5" value="" style="endArrow=openThin;html=1;endFill=0;" parent="_ORYt1C13AhzwcyPVOTH-1" edge="1">
          <mxGeometry width="50" height="50" relative="1" as="geometry">
            <mxPoint x="107" y="370" as="sourcePoint" />
            <mxPoint x="266" y="370" as="targetPoint" />
          </mxGeometry>
        </mxCell>
        <mxCell id="AWgaOJb2uCznWJsoljDG-6" value="prenota" style="text;html=1;align=center;verticalAlign=middle;resizable=0;points=[];autosize=1;strokeColor=none;" parent="_ORYt1C13AhzwcyPVOTH-1" vertex="1">
          <mxGeometry x="154.68" y="398.53" width="60" height="20" as="geometry" />
        </mxCell>
        <mxCell id="AWgaOJb2uCznWJsoljDG-7" value="" style="endArrow=openThin;html=1;endFill=0;" parent="_ORYt1C13AhzwcyPVOTH-1" edge="1">
          <mxGeometry width="50" height="50" relative="1" as="geometry">
            <mxPoint x="108.31" y="418.5300000000001" as="sourcePoint" />
            <mxPoint x="267.31" y="418.5300000000001" as="targetPoint" />
          </mxGeometry>
        </mxCell>
        <mxCell id="AWgaOJb2uCznWJsoljDG-9" value="creaPrenotazione()" style="text;html=1;align=center;verticalAlign=middle;resizable=0;points=[];autosize=1;strokeColor=none;" parent="_ORYt1C13AhzwcyPVOTH-1" vertex="1">
          <mxGeometry x="286.37" y="438.80999999999995" width="120" height="20" as="geometry" />
        </mxCell>
        <mxCell id="AWgaOJb2uCznWJsoljDG-10" value="" style="endArrow=classic;html=1;" parent="_ORYt1C13AhzwcyPVOTH-1" edge="1">
          <mxGeometry width="50" height="50" relative="1" as="geometry">
            <mxPoint x="268" y="458.81000000000006" as="sourcePoint" />
            <mxPoint x="427" y="458.81000000000006" as="targetPoint" />
          </mxGeometry>
        </mxCell>
        <mxCell id="AWgaOJb2uCznWJsoljDG-12" value="" style="endArrow=none;dashed=1;html=1;entryX=0.5;entryY=1;entryDx=0;entryDy=0;" parent="_ORYt1C13AhzwcyPVOTH-1" target="AWgaOJb2uCznWJsoljDG-3" edge="1">
          <mxGeometry width="50" height="50" relative="1" as="geometry">
            <mxPoint x="590" y="920" as="sourcePoint" />
            <mxPoint x="585.0250000000002" y="350.0000000000001" as="targetPoint" />
          </mxGeometry>
        </mxCell>
        <mxCell id="AWgaOJb2uCznWJsoljDG-16" value="" style="endArrow=none;html=1;dashed=1;endFill=0;startArrow=openThin;startFill=0;" parent="_ORYt1C13AhzwcyPVOTH-1" edge="1">
          <mxGeometry width="50" height="50" relative="1" as="geometry">
            <mxPoint x="266.87" y="600" as="sourcePoint" />
            <mxPoint x="425.87" y="600.19" as="targetPoint" />
          </mxGeometry>
        </mxCell>
        <mxCell id="mxpouJZo4NLbufcGk1ly-0" value="" style="endArrow=none;html=1;dashed=1;endFill=0;startArrow=openThin;startFill=0;" parent="_ORYt1C13AhzwcyPVOTH-1" edge="1">
          <mxGeometry width="50" height="50" relative="1" as="geometry">
            <mxPoint x="429.9999999999999" y="550" as="sourcePoint" />
            <mxPoint x="588.9999999999999" y="550.19" as="targetPoint" />
          </mxGeometry>
        </mxCell>
      </root>
    </mxGraphModel>
  </diagram>
  <diagram id="a9FjplbMHubcIpTxjZOo" name="ConfermaPrenotazione">
    <mxGraphModel dx="1422" dy="762" grid="1" gridSize="10" guides="1" tooltips="1" connect="1" arrows="1" fold="1" page="1" pageScale="1" pageWidth="850" pageHeight="1100" math="0" shadow="0">
      <root>
        <mxCell id="O0P24W1K73uTrdCoNLuL-0" />
        <mxCell id="O0P24W1K73uTrdCoNLuL-1" parent="O0P24W1K73uTrdCoNLuL-0" />
        <mxCell id="XFRe56pmSzs_pjSgctuO-0" value="" style="shape=umlActor;verticalLabelPosition=bottom;verticalAlign=top;html=1;outlineConnect=0;" parent="O0P24W1K73uTrdCoNLuL-1" vertex="1">
          <mxGeometry x="211.68" y="120" width="30" height="60" as="geometry" />
        </mxCell>
        <mxCell id="XFRe56pmSzs_pjSgctuO-1" value=":ViewPrenotazioni" style="rounded=1;whiteSpace=wrap;html=1;fillColor=#f8cecc;strokeColor=#b85450;" parent="O0P24W1K73uTrdCoNLuL-1" vertex="1">
          <mxGeometry x="319" y="190.2" width="139" height="39.8" as="geometry" />
        </mxCell>
        <mxCell id="XFRe56pmSzs_pjSgctuO-2" value="showPrenotazioni" style="text;html=1;align=center;verticalAlign=middle;resizable=0;points=[];autosize=1;strokeColor=none;" parent="O0P24W1K73uTrdCoNLuL-1" vertex="1">
          <mxGeometry x="248.37" y="250" width="110" height="20" as="geometry" />
        </mxCell>
        <mxCell id="XFRe56pmSzs_pjSgctuO-3" value=":Prenotazioni Controller" style="rounded=1;whiteSpace=wrap;html=1;fillColor=#d5e8d4;strokeColor=#82b366;" parent="O0P24W1K73uTrdCoNLuL-1" vertex="1">
          <mxGeometry x="490" y="190.2" width="120" height="39.8" as="geometry" />
        </mxCell>
        <mxCell id="XFRe56pmSzs_pjSgctuO-6" value="" style="endArrow=openThin;html=1;endFill=0;" parent="O0P24W1K73uTrdCoNLuL-1" edge="1">
          <mxGeometry width="50" height="50" relative="1" as="geometry">
            <mxPoint x="226.68" y="450" as="sourcePoint" />
            <mxPoint x="386.68" y="450" as="targetPoint" />
          </mxGeometry>
        </mxCell>
        <mxCell id="XFRe56pmSzs_pjSgctuO-7" value="" style="endArrow=none;dashed=1;html=1;entryX=0.5;entryY=1;entryDx=0;entryDy=0;" parent="O0P24W1K73uTrdCoNLuL-1" edge="1">
          <mxGeometry width="50" height="50" relative="1" as="geometry">
            <mxPoint x="226" y="710" as="sourcePoint" />
            <mxPoint x="226.39499999999973" y="230" as="targetPoint" />
          </mxGeometry>
        </mxCell>
        <mxCell id="XFRe56pmSzs_pjSgctuO-8" value="" style="endArrow=none;dashed=1;html=1;entryX=0.5;entryY=1;entryDx=0;entryDy=0;" parent="O0P24W1K73uTrdCoNLuL-1" edge="1">
          <mxGeometry width="50" height="50" relative="1" as="geometry">
            <mxPoint x="388" y="710" as="sourcePoint" />
            <mxPoint x="387.5" y="230" as="targetPoint" />
          </mxGeometry>
        </mxCell>
        <mxCell id="XFRe56pmSzs_pjSgctuO-9" value="" style="endArrow=none;dashed=1;html=1;entryX=0.467;entryY=1.023;entryDx=0;entryDy=0;entryPerimeter=0;" parent="O0P24W1K73uTrdCoNLuL-1" target="XFRe56pmSzs_pjSgctuO-3" edge="1">
          <mxGeometry width="50" height="50" relative="1" as="geometry">
            <mxPoint x="546" y="710" as="sourcePoint" />
            <mxPoint x="549.9999999999999" y="230" as="targetPoint" />
            <Array as="points">
              <mxPoint x="546.9999999999999" y="360" />
            </Array>
          </mxGeometry>
        </mxCell>
        <mxCell id="XFRe56pmSzs_pjSgctuO-10" value=":Prenotazione" style="rounded=1;whiteSpace=wrap;html=1;fillColor=#dae8fc;strokeColor=#6c8ebf;" parent="O0P24W1K73uTrdCoNLuL-1" vertex="1">
          <mxGeometry x="652.9999999999999" y="190.20000000000005" width="113.37" height="39.8" as="geometry" />
        </mxCell>
        <mxCell id="XFRe56pmSzs_pjSgctuO-11" value="" style="endArrow=openThin;html=1;endFill=0;" parent="O0P24W1K73uTrdCoNLuL-1" edge="1">
          <mxGeometry width="50" height="50" relative="1" as="geometry">
            <mxPoint x="227.18" y="270" as="sourcePoint" />
            <mxPoint x="386.18" y="270" as="targetPoint" />
          </mxGeometry>
        </mxCell>
        <mxCell id="XFRe56pmSzs_pjSgctuO-14" value="elencoPrenotazioni()" style="text;html=1;align=center;verticalAlign=middle;resizable=0;points=[];autosize=1;strokeColor=none;" parent="O0P24W1K73uTrdCoNLuL-1" vertex="1">
          <mxGeometry x="401.37" y="299.99999999999994" width="130" height="20" as="geometry" />
        </mxCell>
        <mxCell id="XFRe56pmSzs_pjSgctuO-15" value="" style="endArrow=classic;html=1;" parent="O0P24W1K73uTrdCoNLuL-1" edge="1">
          <mxGeometry width="50" height="50" relative="1" as="geometry">
            <mxPoint x="386.87" y="319.99999999999994" as="sourcePoint" />
            <mxPoint x="545.8699999999999" y="319.99999999999994" as="targetPoint" />
          </mxGeometry>
        </mxCell>
        <mxCell id="XFRe56pmSzs_pjSgctuO-16" value="" style="endArrow=none;dashed=1;html=1;entryX=0.5;entryY=1;entryDx=0;entryDy=0;" parent="O0P24W1K73uTrdCoNLuL-1" target="XFRe56pmSzs_pjSgctuO-10" edge="1">
          <mxGeometry width="50" height="50" relative="1" as="geometry">
            <mxPoint x="710" y="710" as="sourcePoint" />
            <mxPoint x="705.0250000000002" y="240.0000000000001" as="targetPoint" />
          </mxGeometry>
        </mxCell>
        <mxCell id="XFRe56pmSzs_pjSgctuO-17" value="" style="endArrow=none;html=1;dashed=1;endFill=0;startArrow=openThin;startFill=0;" parent="O0P24W1K73uTrdCoNLuL-1" edge="1">
          <mxGeometry width="50" height="50" relative="1" as="geometry">
            <mxPoint x="386.8699999999999" y="680" as="sourcePoint" />
            <mxPoint x="545.8699999999998" y="680.19" as="targetPoint" />
          </mxGeometry>
        </mxCell>
        <mxCell id="XFRe56pmSzs_pjSgctuO-18" value="elencoPrenotazioni" style="text;html=1;align=center;verticalAlign=middle;resizable=0;points=[];autosize=1;strokeColor=none;" parent="O0P24W1K73uTrdCoNLuL-1" vertex="1">
          <mxGeometry x="406.3699999999999" y="360" width="120" height="20" as="geometry" />
        </mxCell>
        <mxCell id="XFRe56pmSzs_pjSgctuO-23" value="" style="endArrow=none;html=1;dashed=1;endFill=0;startArrow=openThin;startFill=0;" parent="O0P24W1K73uTrdCoNLuL-1" edge="1">
          <mxGeometry width="50" height="50" relative="1" as="geometry">
            <mxPoint x="391.68" y="380" as="sourcePoint" />
            <mxPoint x="548.4999999999997" y="380" as="targetPoint" />
          </mxGeometry>
        </mxCell>
        <mxCell id="tKt_NyrxBJr5hTRFM2oN-0" value="Farmacista" style="rounded=1;whiteSpace=wrap;html=1;" parent="O0P24W1K73uTrdCoNLuL-1" vertex="1">
          <mxGeometry x="170" y="190.2" width="113.37" height="39.8" as="geometry" />
        </mxCell>
        <mxCell id="tKt_NyrxBJr5hTRFM2oN-1" value="conferma" style="text;html=1;align=center;verticalAlign=middle;resizable=0;points=[];autosize=1;strokeColor=none;" parent="O0P24W1K73uTrdCoNLuL-1" vertex="1">
          <mxGeometry x="271.68" y="430" width="70" height="20" as="geometry" />
        </mxCell>
        <mxCell id="tKt_NyrxBJr5hTRFM2oN-2" value="confermaPrenotazione()" style="text;html=1;align=center;verticalAlign=middle;resizable=0;points=[];autosize=1;strokeColor=none;" parent="O0P24W1K73uTrdCoNLuL-1" vertex="1">
          <mxGeometry x="396.37" y="490" width="140" height="20" as="geometry" />
        </mxCell>
        <mxCell id="tKt_NyrxBJr5hTRFM2oN-3" value="" style="endArrow=classic;html=1;" parent="O0P24W1K73uTrdCoNLuL-1" edge="1">
          <mxGeometry width="50" height="50" relative="1" as="geometry">
            <mxPoint x="386.86999999999995" y="510.00000000000006" as="sourcePoint" />
            <mxPoint x="545.87" y="510.00000000000006" as="targetPoint" />
          </mxGeometry>
        </mxCell>
        <mxCell id="ykd_s8nPCtmZ9xX1e3-r-0" value="setConfermata()" style="text;html=1;align=center;verticalAlign=middle;resizable=0;points=[];autosize=1;strokeColor=none;" parent="O0P24W1K73uTrdCoNLuL-1" vertex="1">
          <mxGeometry x="579.5" y="550" width="100" height="20" as="geometry" />
        </mxCell>
        <mxCell id="ykd_s8nPCtmZ9xX1e3-r-1" value="" style="endArrow=classic;html=1;" parent="O0P24W1K73uTrdCoNLuL-1" edge="1">
          <mxGeometry width="50" height="50" relative="1" as="geometry">
            <mxPoint x="549.9999999999999" y="570" as="sourcePoint" />
            <mxPoint x="708.9999999999999" y="570" as="targetPoint" />
          </mxGeometry>
        </mxCell>
        <mxCell id="ykd_s8nPCtmZ9xX1e3-r-2" value="" style="endArrow=none;html=1;dashed=1;endFill=0;startArrow=openThin;startFill=0;" parent="O0P24W1K73uTrdCoNLuL-1" edge="1">
          <mxGeometry width="50" height="50" relative="1" as="geometry">
            <mxPoint x="550" y="630" as="sourcePoint" />
            <mxPoint x="709" y="630.19" as="targetPoint" />
          </mxGeometry>
        </mxCell>
      </root>
    </mxGraphModel>
  </diagram>
  <diagram id="dxa2eRNmHPsm656QeL9l" name="RicercaFarmaco">
    <mxGraphModel dx="1422" dy="762" grid="1" gridSize="10" guides="1" tooltips="1" connect="1" arrows="1" fold="1" page="1" pageScale="1" pageWidth="827" pageHeight="1169" math="0" shadow="0">
      <root>
        <mxCell id="sezwXlEZ4EmBpwalJEk5-0" />
        <mxCell id="sezwXlEZ4EmBpwalJEk5-1" parent="sezwXlEZ4EmBpwalJEk5-0" />
        <mxCell id="aMy5aNwItVkTSxy_9AOb-0" value="" style="shape=umlActor;verticalLabelPosition=bottom;verticalAlign=top;html=1;outlineConnect=0;" parent="sezwXlEZ4EmBpwalJEk5-1" vertex="1">
          <mxGeometry x="211.68" y="120" width="30" height="60" as="geometry" />
        </mxCell>
        <mxCell id="aMy5aNwItVkTSxy_9AOb-1" value=":HomeServizio" style="rounded=1;whiteSpace=wrap;html=1;fillColor=#f8cecc;strokeColor=#b85450;" parent="sezwXlEZ4EmBpwalJEk5-1" vertex="1">
          <mxGeometry x="319" y="190.2" width="139" height="39.8" as="geometry" />
        </mxCell>
        <mxCell id="aMy5aNwItVkTSxy_9AOb-3" value=":RicercaFarmaci&lt;br&gt;Controller" style="rounded=1;whiteSpace=wrap;html=1;fillColor=#d5e8d4;strokeColor=#82b366;" parent="sezwXlEZ4EmBpwalJEk5-1" vertex="1">
          <mxGeometry x="490" y="190.2" width="120" height="39.8" as="geometry" />
        </mxCell>
        <mxCell id="aMy5aNwItVkTSxy_9AOb-5" value="" style="endArrow=none;dashed=1;html=1;entryX=0.5;entryY=1;entryDx=0;entryDy=0;" parent="sezwXlEZ4EmBpwalJEk5-1" edge="1">
          <mxGeometry width="50" height="50" relative="1" as="geometry">
            <mxPoint x="226" y="710" as="sourcePoint" />
            <mxPoint x="226.39499999999975" y="230" as="targetPoint" />
          </mxGeometry>
        </mxCell>
        <mxCell id="aMy5aNwItVkTSxy_9AOb-6" value="" style="endArrow=none;dashed=1;html=1;entryX=0.5;entryY=1;entryDx=0;entryDy=0;" parent="sezwXlEZ4EmBpwalJEk5-1" edge="1">
          <mxGeometry width="50" height="50" relative="1" as="geometry">
            <mxPoint x="388" y="710" as="sourcePoint" />
            <mxPoint x="387.5" y="230" as="targetPoint" />
          </mxGeometry>
        </mxCell>
        <mxCell id="aMy5aNwItVkTSxy_9AOb-7" value="" style="endArrow=none;dashed=1;html=1;entryX=0.467;entryY=1.023;entryDx=0;entryDy=0;entryPerimeter=0;" parent="sezwXlEZ4EmBpwalJEk5-1" target="aMy5aNwItVkTSxy_9AOb-3" edge="1">
          <mxGeometry width="50" height="50" relative="1" as="geometry">
            <mxPoint x="546" y="710" as="sourcePoint" />
            <mxPoint x="549.9999999999999" y="230" as="targetPoint" />
            <Array as="points">
              <mxPoint x="546.9999999999999" y="360" />
            </Array>
          </mxGeometry>
        </mxCell>
        <mxCell id="aMy5aNwItVkTSxy_9AOb-8" value=":Farmacia" style="rounded=1;whiteSpace=wrap;html=1;fillColor=#dae8fc;strokeColor=#6c8ebf;" parent="sezwXlEZ4EmBpwalJEk5-1" vertex="1">
          <mxGeometry x="652.9999999999999" y="190.20000000000005" width="113.37" height="39.8" as="geometry" />
        </mxCell>
        <mxCell id="aMy5aNwItVkTSxy_9AOb-10" value="ricercaFarmaci()" style="text;html=1;align=center;verticalAlign=middle;resizable=0;points=[];autosize=1;strokeColor=none;" parent="sezwXlEZ4EmBpwalJEk5-1" vertex="1">
          <mxGeometry x="416.37" y="329.99999999999994" width="100" height="20" as="geometry" />
        </mxCell>
        <mxCell id="aMy5aNwItVkTSxy_9AOb-11" value="" style="endArrow=classic;html=1;" parent="sezwXlEZ4EmBpwalJEk5-1" edge="1">
          <mxGeometry width="50" height="50" relative="1" as="geometry">
            <mxPoint x="386.8699999999999" y="350" as="sourcePoint" />
            <mxPoint x="545.8699999999999" y="350" as="targetPoint" />
          </mxGeometry>
        </mxCell>
        <mxCell id="aMy5aNwItVkTSxy_9AOb-12" value="" style="endArrow=none;dashed=1;html=1;entryX=0.5;entryY=1;entryDx=0;entryDy=0;" parent="sezwXlEZ4EmBpwalJEk5-1" target="aMy5aNwItVkTSxy_9AOb-8" edge="1">
          <mxGeometry width="50" height="50" relative="1" as="geometry">
            <mxPoint x="710" y="710" as="sourcePoint" />
            <mxPoint x="705.0250000000002" y="240.0000000000001" as="targetPoint" />
          </mxGeometry>
        </mxCell>
        <mxCell id="aMy5aNwItVkTSxy_9AOb-14" value="elencoFarmacie" style="text;html=1;align=center;verticalAlign=middle;resizable=0;points=[];autosize=1;strokeColor=none;" parent="sezwXlEZ4EmBpwalJEk5-1" vertex="1">
          <mxGeometry x="414.8699999999999" y="520" width="100" height="20" as="geometry" />
        </mxCell>
        <mxCell id="aMy5aNwItVkTSxy_9AOb-15" value="" style="endArrow=none;html=1;dashed=1;endFill=0;startArrow=openThin;startFill=0;" parent="sezwXlEZ4EmBpwalJEk5-1" edge="1">
          <mxGeometry width="50" height="50" relative="1" as="geometry">
            <mxPoint x="390.18000000000006" y="540" as="sourcePoint" />
            <mxPoint x="546.9999999999995" y="540" as="targetPoint" />
          </mxGeometry>
        </mxCell>
        <mxCell id="aMy5aNwItVkTSxy_9AOb-16" value="Cliente" style="rounded=1;whiteSpace=wrap;html=1;" parent="sezwXlEZ4EmBpwalJEk5-1" vertex="1">
          <mxGeometry x="170" y="190.2" width="113.37" height="39.8" as="geometry" />
        </mxCell>
        <mxCell id="cL6VMV_MxDikif9uh_Yw-0" value="" style="endArrow=openThin;html=1;endFill=0;" parent="sezwXlEZ4EmBpwalJEk5-1" edge="1">
          <mxGeometry width="50" height="50" relative="1" as="geometry">
            <mxPoint x="227.18" y="270" as="sourcePoint" />
            <mxPoint x="386.18" y="270" as="targetPoint" />
          </mxGeometry>
        </mxCell>
        <mxCell id="cL6VMV_MxDikif9uh_Yw-1" value="ricercaFarmaco" style="text;html=1;align=center;verticalAlign=middle;resizable=0;points=[];autosize=1;strokeColor=none;" parent="sezwXlEZ4EmBpwalJEk5-1" vertex="1">
          <mxGeometry x="253.55" y="290" width="100" height="20" as="geometry" />
        </mxCell>
        <mxCell id="cL6VMV_MxDikif9uh_Yw-2" value="" style="endArrow=openThin;html=1;endFill=0;" parent="sezwXlEZ4EmBpwalJEk5-1" edge="1">
          <mxGeometry width="50" height="50" relative="1" as="geometry">
            <mxPoint x="227.17999999999995" y="310.0000000000002" as="sourcePoint" />
            <mxPoint x="386.17999999999995" y="310.0000000000002" as="targetPoint" />
          </mxGeometry>
        </mxCell>
        <mxCell id="cL6VMV_MxDikif9uh_Yw-3" value="show" style="text;html=1;align=center;verticalAlign=middle;resizable=0;points=[];autosize=1;strokeColor=none;" parent="sezwXlEZ4EmBpwalJEk5-1" vertex="1">
          <mxGeometry x="280" y="250" width="40" height="20" as="geometry" />
        </mxCell>
        <mxCell id="cL6VMV_MxDikif9uh_Yw-5" value="" style="endArrow=classic;html=1;" parent="sezwXlEZ4EmBpwalJEk5-1" edge="1">
          <mxGeometry width="50" height="50" relative="1" as="geometry">
            <mxPoint x="546.2799999999999" y="429" as="sourcePoint" />
            <mxPoint x="705.2799999999999" y="429" as="targetPoint" />
          </mxGeometry>
        </mxCell>
        <mxCell id="cL6VMV_MxDikif9uh_Yw-6" value="quantitaFarmaco" style="text;html=1;align=center;verticalAlign=middle;resizable=0;points=[];autosize=1;strokeColor=none;" parent="sezwXlEZ4EmBpwalJEk5-1" vertex="1">
          <mxGeometry x="567.0599999999998" y="459" width="110" height="20" as="geometry" />
        </mxCell>
        <mxCell id="cL6VMV_MxDikif9uh_Yw-7" value="" style="endArrow=none;html=1;dashed=1;endFill=0;startArrow=openThin;startFill=0;" parent="sezwXlEZ4EmBpwalJEk5-1" edge="1">
          <mxGeometry width="50" height="50" relative="1" as="geometry">
            <mxPoint x="547.37" y="479" as="sourcePoint" />
            <mxPoint x="704.1899999999995" y="479" as="targetPoint" />
          </mxGeometry>
        </mxCell>
        <mxCell id="cL6VMV_MxDikif9uh_Yw-8" value="ricercaFarmaco()" style="text;html=1;align=center;verticalAlign=middle;resizable=0;points=[];autosize=1;strokeColor=none;" parent="sezwXlEZ4EmBpwalJEk5-1" vertex="1">
          <mxGeometry x="551.28" y="409" width="110" height="20" as="geometry" />
        </mxCell>
        <mxCell id="kAestGBgWhUAKBoKkaV2-0" value="" style="rounded=0;whiteSpace=wrap;html=1;fillColor=none;strokeColor=#B3B3B3;" parent="sezwXlEZ4EmBpwalJEk5-1" vertex="1">
          <mxGeometry x="498.96" y="370" width="253.63" height="130" as="geometry" />
        </mxCell>
        <mxCell id="kAestGBgWhUAKBoKkaV2-1" value="" style="shape=card;whiteSpace=wrap;html=1;strokeColor=#B3B3B3;fillColor=none;rotation=-90;flipV=1;size=7;" parent="sezwXlEZ4EmBpwalJEk5-1" vertex="1">
          <mxGeometry x="508.96" y="360" width="21.81" height="41.43" as="geometry" />
        </mxCell>
        <mxCell id="kAestGBgWhUAKBoKkaV2-2" value="&lt;font color=&quot;#808080&quot;&gt;loop&lt;/font&gt;" style="text;html=1;strokeColor=none;fillColor=none;align=center;verticalAlign=middle;whiteSpace=wrap;rounded=0;" parent="sezwXlEZ4EmBpwalJEk5-1" vertex="1">
          <mxGeometry x="498.96" y="370" width="40" height="20" as="geometry" />
        </mxCell>
        <mxCell id="kAestGBgWhUAKBoKkaV2-8" value="&lt;font color=&quot;#007fff&quot;&gt;per ogni Farmacia&lt;/font&gt;" style="text;html=1;strokeColor=none;fillColor=none;align=center;verticalAlign=middle;whiteSpace=wrap;rounded=0;" parent="sezwXlEZ4EmBpwalJEk5-1" vertex="1">
          <mxGeometry x="499.86999999999995" y="390" width="134.09" height="20" as="geometry" />
        </mxCell>
      </root>
    </mxGraphModel>
  </diagram>
  <diagram id="VvhvRt91e7g_LZnN4-mh" name="SospensioneUtenza">
    <mxGraphModel dx="1422" dy="762" grid="1" gridSize="10" guides="1" tooltips="1" connect="1" arrows="1" fold="1" page="1" pageScale="1" pageWidth="1169" pageHeight="1654" math="0" shadow="0">
      <root>
        <mxCell id="_Gedr4bHHFWna1eDETLu-0" />
        <mxCell id="_Gedr4bHHFWna1eDETLu-1" parent="_Gedr4bHHFWna1eDETLu-0" />
        <mxCell id="BssPpXxEcI6JCP9NsBup-0" value="" style="shape=umlActor;verticalLabelPosition=bottom;verticalAlign=top;html=1;outlineConnect=0;" parent="_Gedr4bHHFWna1eDETLu-1" vertex="1">
          <mxGeometry x="141.68000000000006" y="69.99999999999983" width="30" height="60" as="geometry" />
        </mxCell>
        <mxCell id="BssPpXxEcI6JCP9NsBup-1" value="Farmacista" style="rounded=1;whiteSpace=wrap;html=1;" parent="_Gedr4bHHFWna1eDETLu-1" vertex="1">
          <mxGeometry x="99.99999999999989" y="150.20000000000005" width="113.37" height="39.8" as="geometry" />
        </mxCell>
        <mxCell id="lkiZQM0X7l0EnAWFQyGK-0" value="&lt;div&gt;:ViewResocontoUtenti&lt;/div&gt;" style="rounded=1;whiteSpace=wrap;html=1;fillColor=#f8cecc;strokeColor=#b85450;" parent="_Gedr4bHHFWna1eDETLu-1" vertex="1">
          <mxGeometry x="320" y="150.2" width="139" height="39.8" as="geometry" />
        </mxCell>
        <mxCell id="lkiZQM0X7l0EnAWFQyGK-1" value="" style="endArrow=none;dashed=1;html=1;entryX=0.5;entryY=1;entryDx=0;entryDy=0;" parent="_Gedr4bHHFWna1eDETLu-1" target="BssPpXxEcI6JCP9NsBup-1" edge="1">
          <mxGeometry width="50" height="50" relative="1" as="geometry">
            <mxPoint x="157" y="610" as="sourcePoint" />
            <mxPoint x="530" y="280" as="targetPoint" />
          </mxGeometry>
        </mxCell>
        <mxCell id="g41pObuDTOL8uATg606i-0" value="" style="endArrow=open;html=1;endFill=0;" parent="_Gedr4bHHFWna1eDETLu-1" edge="1">
          <mxGeometry width="50" height="50" relative="1" as="geometry">
            <mxPoint x="160" y="240" as="sourcePoint" />
            <mxPoint x="390" y="240" as="targetPoint" />
          </mxGeometry>
        </mxCell>
        <mxCell id="g41pObuDTOL8uATg606i-2" value="&lt;div style=&quot;font-size: 12px;&quot;&gt;show&lt;/div&gt;" style="edgeLabel;html=1;align=center;verticalAlign=middle;resizable=0;points=[];fontSize=12;" parent="g41pObuDTOL8uATg606i-0" vertex="1" connectable="0">
          <mxGeometry x="-0.113" y="1" relative="1" as="geometry">
            <mxPoint x="8" y="-9" as="offset" />
          </mxGeometry>
        </mxCell>
        <mxCell id="g41pObuDTOL8uATg606i-1" value="" style="endArrow=none;dashed=1;html=1;entryX=0.5;entryY=1;entryDx=0;entryDy=0;" parent="_Gedr4bHHFWna1eDETLu-1" target="lkiZQM0X7l0EnAWFQyGK-0" edge="1">
          <mxGeometry width="50" height="50" relative="1" as="geometry">
            <mxPoint x="390" y="610" as="sourcePoint" />
            <mxPoint x="530" y="280" as="targetPoint" />
          </mxGeometry>
        </mxCell>
        <mxCell id="ELEw6YrpLCZwg-bgQ1IO-0" value="" style="endArrow=open;html=1;fontSize=12;endFill=0;" parent="_Gedr4bHHFWna1eDETLu-1" edge="1">
          <mxGeometry width="50" height="50" relative="1" as="geometry">
            <mxPoint x="160" y="300" as="sourcePoint" />
            <mxPoint x="390" y="300" as="targetPoint" />
          </mxGeometry>
        </mxCell>
        <mxCell id="ELEw6YrpLCZwg-bgQ1IO-1" value="&lt;div&gt;blocca&lt;/div&gt;" style="edgeLabel;html=1;align=center;verticalAlign=middle;resizable=0;points=[];fontSize=12;" parent="ELEw6YrpLCZwg-bgQ1IO-0" vertex="1" connectable="0">
          <mxGeometry x="-0.1652" y="1" relative="1" as="geometry">
            <mxPoint x="14" y="-9" as="offset" />
          </mxGeometry>
        </mxCell>
        <mxCell id="Ceft8erg8oEL0SFiype3-0" value="&lt;div&gt;:UtentiController&lt;/div&gt;" style="rounded=1;whiteSpace=wrap;html=1;fillColor=#d5e8d4;strokeColor=#82b366;" parent="_Gedr4bHHFWna1eDETLu-1" vertex="1">
          <mxGeometry x="560" y="150.2" width="140" height="39.8" as="geometry" />
        </mxCell>
        <mxCell id="Ceft8erg8oEL0SFiype3-1" value="" style="endArrow=none;dashed=1;html=1;fontSize=12;entryX=0.5;entryY=1;entryDx=0;entryDy=0;" parent="_Gedr4bHHFWna1eDETLu-1" target="Ceft8erg8oEL0SFiype3-0" edge="1">
          <mxGeometry width="50" height="50" relative="1" as="geometry">
            <mxPoint x="630" y="610" as="sourcePoint" />
            <mxPoint x="530" y="330" as="targetPoint" />
          </mxGeometry>
        </mxCell>
        <mxCell id="Ceft8erg8oEL0SFiype3-2" value="" style="endArrow=classic;html=1;fontSize=12;" parent="_Gedr4bHHFWna1eDETLu-1" edge="1">
          <mxGeometry width="50" height="50" relative="1" as="geometry">
            <mxPoint x="390" y="360" as="sourcePoint" />
            <mxPoint x="630" y="360" as="targetPoint" />
          </mxGeometry>
        </mxCell>
        <mxCell id="Ceft8erg8oEL0SFiype3-3" value="&lt;div&gt;bloccaUtente()&lt;/div&gt;" style="edgeLabel;html=1;align=center;verticalAlign=middle;resizable=0;points=[];fontSize=12;" parent="Ceft8erg8oEL0SFiype3-2" vertex="1" connectable="0">
          <mxGeometry x="0.25" relative="1" as="geometry">
            <mxPoint x="-30" y="-10" as="offset" />
          </mxGeometry>
        </mxCell>
        <mxCell id="OSLY32mFLNj5tnKxzwMT-0" value="&lt;div&gt;:ClienteRegistrato&lt;/div&gt;" style="rounded=1;whiteSpace=wrap;html=1;fillColor=#dae8fc;strokeColor=#6c8ebf;" parent="_Gedr4bHHFWna1eDETLu-1" vertex="1">
          <mxGeometry x="750" y="150.2" width="140" height="39.8" as="geometry" />
        </mxCell>
        <mxCell id="OSLY32mFLNj5tnKxzwMT-1" value="" style="endArrow=none;dashed=1;html=1;fontSize=12;entryX=0.5;entryY=1;entryDx=0;entryDy=0;" parent="_Gedr4bHHFWna1eDETLu-1" target="OSLY32mFLNj5tnKxzwMT-0" edge="1">
          <mxGeometry width="50" height="50" relative="1" as="geometry">
            <mxPoint x="820" y="610" as="sourcePoint" />
            <mxPoint x="871.6800000000001" y="300" as="targetPoint" />
          </mxGeometry>
        </mxCell>
        <mxCell id="OSLY32mFLNj5tnKxzwMT-2" value="" style="endArrow=open;html=1;fontSize=12;endFill=0;" parent="_Gedr4bHHFWna1eDETLu-1" edge="1">
          <mxGeometry width="50" height="50" relative="1" as="geometry">
            <mxPoint x="630" y="400" as="sourcePoint" />
            <mxPoint x="820" y="400" as="targetPoint" />
          </mxGeometry>
        </mxCell>
        <mxCell id="OSLY32mFLNj5tnKxzwMT-3" value="blocca()" style="edgeLabel;html=1;align=center;verticalAlign=middle;resizable=0;points=[];fontSize=12;" parent="OSLY32mFLNj5tnKxzwMT-2" vertex="1" connectable="0">
          <mxGeometry x="0.3289" y="1" relative="1" as="geometry">
            <mxPoint x="-26" y="-9" as="offset" />
          </mxGeometry>
        </mxCell>
        <mxCell id="sZFNVyP5lJY68Uhu2veD-0" value="" style="endArrow=open;html=1;fontSize=12;dashed=1;endFill=0;" parent="_Gedr4bHHFWna1eDETLu-1" edge="1">
          <mxGeometry width="50" height="50" relative="1" as="geometry">
            <mxPoint x="630" y="440" as="sourcePoint" />
            <mxPoint x="390" y="440" as="targetPoint" />
          </mxGeometry>
        </mxCell>
        <mxCell id="sZFNVyP5lJY68Uhu2veD-1" value="esito" style="edgeLabel;html=1;align=center;verticalAlign=middle;resizable=0;points=[];fontSize=12;" parent="sZFNVyP5lJY68Uhu2veD-0" vertex="1" connectable="0">
          <mxGeometry x="0.2986" y="-3" relative="1" as="geometry">
            <mxPoint x="36" y="-7" as="offset" />
          </mxGeometry>
        </mxCell>
        <mxCell id="sZFNVyP5lJY68Uhu2veD-4" value="" style="endArrow=classic;html=1;dashed=1;fontSize=12;" parent="_Gedr4bHHFWna1eDETLu-1" edge="1">
          <mxGeometry width="50" height="50" relative="1" as="geometry">
            <mxPoint x="390" y="480" as="sourcePoint" />
            <mxPoint x="160" y="480" as="targetPoint" />
          </mxGeometry>
        </mxCell>
        <mxCell id="sZFNVyP5lJY68Uhu2veD-5" value="esito" style="edgeLabel;html=1;align=center;verticalAlign=middle;resizable=0;points=[];fontSize=12;" parent="sZFNVyP5lJY68Uhu2veD-4" vertex="1" connectable="0">
          <mxGeometry x="0.413" y="2" relative="1" as="geometry">
            <mxPoint x="43" y="-12" as="offset" />
          </mxGeometry>
        </mxCell>
      </root>
    </mxGraphModel>
  </diagram>
</mxfile>
